<svg xmlns="http://www.w3.org/2000/svg" xmlns:svg="http://www.w3.org/2000/svg" id="svg12" width="1600" height="1000" version="1.1" viewBox="0 0 80 50"><metadata id="metadata18"/><path id="path2" d="M 0,0 H 80 V 50 H 0 Z" style="fill:#fff;stroke-width:.89442718"/><path id="path4" d="M 40,0 V 50 M 0,25 h 80" style="stroke:#fff;stroke-width:6.70820379"/><path id="path6" d="M 0,20 H 80 V 30 H 0 Z" style="fill:#cf142b;fill-rule:evenodd;stroke-width:.89442718"/><path id="path8" d="m 36,0 h 8 V 50 H 36 Z M 0,3.751 20.6664,16.667 h 6 L 0,0 Z m 80,42.5 -20.6664,-12.918 h -6 L 80,50 V 46.249 Z M 0,50 H 6 L 32.6664,33.333 h -6 z M 80,0 H 74 L 47.3336,16.667 h 6 z" style="fill:#cf142b;fill-rule:evenodd;stroke-width:.89442718"/><path id="path10" d="m 8.9336,0 h 24.4 v 15.251 z m 0,50 h 24.4 V 34.749 Z M 71.0664,0 h -24.4 v 15.251 z m 0,50 h -24.4 V 34.749 Z M 0,5.584 v 11.083 h 17.7336 z m 80,0 V 16.667 H 62.2664 Z m 0,38.832 V 33.333 H 62.2664 Z m -80,0 V 33.333 h 17.7336 z" style="fill:#00247d;fill-rule:evenodd;stroke-width:.89442718"/></svg>